<?xml version="1.0" encoding="UTF-8" standalone="no"?>
<!DOCTYPE svg PUBLIC "-//W3C//DTD SVG 1.1//EN"
 "http://www.w3.org/Graphics/SVG/1.1/DTD/svg11.dtd">
<!-- Generated by graphviz version 3.0.0 (20220226.1711)
 -->
<!-- Pages: 1 -->
<svg width="2344pt" height="476pt"
 viewBox="0.00 0.00 2343.65 476.00" xmlns="http://www.w3.org/2000/svg" xmlns:xlink="http://www.w3.org/1999/xlink">
<g id="graph0" class="graph" transform="scale(1 1) rotate(0) translate(4 472)">
<polygon fill="white" stroke="transparent" points="-4,4 -4,-472 2339.65,-472 2339.65,4 -4,4"/>
<!-- [root] linode_firewall.firewall (expand) -->
<g id="node1" class="node">
<title>[root] linode_firewall.firewall (expand)</title>
<polygon fill="none" stroke="black" points="1554.78,-180 1409.78,-180 1409.78,-144 1554.78,-144 1554.78,-180"/>
<text text-anchor="middle" x="1482.28" y="-158.3" font-family="Times,serif" font-size="14.00">linode_firewall.firewall</text>
</g>
<!-- [root] provider[&quot;registry.terraform.io/linode/linode&quot;] -->
<g id="node11" class="node">
<title>[root] provider[&quot;registry.terraform.io/linode/linode&quot;]</title>
<polygon fill="none" stroke="black" points="1566.28,-108 1319.28,-90 1566.28,-72 1813.29,-90 1566.28,-108"/>
<text text-anchor="middle" x="1566.28" y="-86.3" font-family="Times,serif" font-size="14.00">provider[&quot;registry.terraform.io/linode/linode&quot;]</text>
</g>
<!-- [root] linode_firewall.firewall (expand)&#45;&gt;[root] provider[&quot;registry.terraform.io/linode/linode&quot;] -->
<g id="edge1" class="edge">
<title>[root] linode_firewall.firewall (expand)&#45;&gt;[root] provider[&quot;registry.terraform.io/linode/linode&quot;]</title>
<path fill="none" stroke="black" d="M1503.05,-143.7C1514.1,-134.49 1527.82,-123.06 1539.65,-113.2"/>
<polygon fill="black" stroke="black" points="1542.04,-115.76 1547.48,-106.67 1537.55,-110.38 1542.04,-115.76"/>
</g>
<!-- [root] linode_lke_cluster.cluster (expand) -->
<g id="node2" class="node">
<title>[root] linode_lke_cluster.cluster (expand)</title>
<polygon fill="none" stroke="black" points="1727.78,-180 1572.78,-180 1572.78,-144 1727.78,-144 1727.78,-180"/>
<text text-anchor="middle" x="1650.28" y="-158.3" font-family="Times,serif" font-size="14.00">linode_lke_cluster.cluster</text>
</g>
<!-- [root] linode_lke_cluster.cluster (expand)&#45;&gt;[root] provider[&quot;registry.terraform.io/linode/linode&quot;] -->
<g id="edge2" class="edge">
<title>[root] linode_lke_cluster.cluster (expand)&#45;&gt;[root] provider[&quot;registry.terraform.io/linode/linode&quot;]</title>
<path fill="none" stroke="black" d="M1629.52,-143.7C1618.47,-134.49 1604.75,-123.06 1592.92,-113.2"/>
<polygon fill="black" stroke="black" points="1595.01,-110.38 1585.09,-106.67 1590.53,-115.76 1595.01,-110.38"/>
</g>
<!-- [root] local_file.kubeconfig&#45;kube (expand) -->
<g id="node3" class="node">
<title>[root] local_file.kubeconfig&#45;kube (expand)</title>
<polygon fill="none" stroke="black" points="2197.78,-252 2034.78,-252 2034.78,-216 2197.78,-216 2197.78,-252"/>
<text text-anchor="middle" x="2116.28" y="-230.3" font-family="Times,serif" font-size="14.00">local_file.kubeconfig&#45;kube</text>
</g>
<!-- [root] local_file.kubeconfig&#45;kube (expand)&#45;&gt;[root] linode_lke_cluster.cluster (expand) -->
<g id="edge3" class="edge">
<title>[root] local_file.kubeconfig&#45;kube (expand)&#45;&gt;[root] linode_lke_cluster.cluster (expand)</title>
<path fill="none" stroke="black" d="M2034.4,-217.36C2031.66,-216.9 2028.95,-216.44 2026.28,-216 1927.77,-199.76 1814.22,-184.19 1737.91,-174.17"/>
<polygon fill="black" stroke="black" points="1738.23,-170.69 1727.86,-172.86 1737.32,-177.63 1738.23,-170.69"/>
</g>
<!-- [root] provider[&quot;registry.terraform.io/hashicorp/local&quot;] -->
<g id="node10" class="node">
<title>[root] provider[&quot;registry.terraform.io/hashicorp/local&quot;]</title>
<polygon fill="none" stroke="black" points="2078.28,-180 1821.06,-162 2078.28,-144 2335.51,-162 2078.28,-180"/>
<text text-anchor="middle" x="2078.28" y="-158.3" font-family="Times,serif" font-size="14.00">provider[&quot;registry.terraform.io/hashicorp/local&quot;]</text>
</g>
<!-- [root] local_file.kubeconfig&#45;kube (expand)&#45;&gt;[root] provider[&quot;registry.terraform.io/hashicorp/local&quot;] -->
<g id="edge4" class="edge">
<title>[root] local_file.kubeconfig&#45;kube (expand)&#45;&gt;[root] provider[&quot;registry.terraform.io/hashicorp/local&quot;]</title>
<path fill="none" stroke="black" d="M2106.89,-215.7C2102.45,-207.52 2097.07,-197.6 2092.17,-188.58"/>
<polygon fill="black" stroke="black" points="2095.15,-186.74 2087.31,-179.62 2089,-190.08 2095.15,-186.74"/>
</g>
<!-- [root] local_file.kubeconfig&#45;local (expand) -->
<g id="node4" class="node">
<title>[root] local_file.kubeconfig&#45;local (expand)</title>
<polygon fill="none" stroke="black" points="2016.78,-252 1853.78,-252 1853.78,-216 2016.78,-216 2016.78,-252"/>
<text text-anchor="middle" x="1935.28" y="-230.3" font-family="Times,serif" font-size="14.00">local_file.kubeconfig&#45;local</text>
</g>
<!-- [root] local_file.kubeconfig&#45;local (expand)&#45;&gt;[root] linode_lke_cluster.cluster (expand) -->
<g id="edge5" class="edge">
<title>[root] local_file.kubeconfig&#45;local (expand)&#45;&gt;[root] linode_lke_cluster.cluster (expand)</title>
<path fill="none" stroke="black" d="M1865.93,-215.97C1824.81,-205.87 1772.54,-193.03 1729.76,-182.52"/>
<polygon fill="black" stroke="black" points="1730.49,-179.1 1719.95,-180.11 1728.83,-185.9 1730.49,-179.1"/>
</g>
<!-- [root] local_file.kubeconfig&#45;local (expand)&#45;&gt;[root] provider[&quot;registry.terraform.io/hashicorp/local&quot;] -->
<g id="edge6" class="edge">
<title>[root] local_file.kubeconfig&#45;local (expand)&#45;&gt;[root] provider[&quot;registry.terraform.io/hashicorp/local&quot;]</title>
<path fill="none" stroke="black" d="M1970.26,-215.88C1990.86,-205.79 2016.99,-193 2038.39,-182.53"/>
<polygon fill="black" stroke="black" points="2040.1,-185.59 2047.55,-178.05 2037.03,-179.3 2040.1,-185.59"/>
</g>
<!-- [root] local_file.terraform_zsh_env (expand) -->
<g id="node5" class="node">
<title>[root] local_file.terraform_zsh_env (expand)</title>
<polygon fill="none" stroke="black" points="2170.28,-324 1996.28,-324 1996.28,-288 2170.28,-288 2170.28,-324"/>
<text text-anchor="middle" x="2083.28" y="-302.3" font-family="Times,serif" font-size="14.00">local_file.terraform_zsh_env</text>
</g>
<!-- [root] local_file.terraform_zsh_env (expand)&#45;&gt;[root] local_file.kubeconfig&#45;kube (expand) -->
<g id="edge7" class="edge">
<title>[root] local_file.terraform_zsh_env (expand)&#45;&gt;[root] local_file.kubeconfig&#45;kube (expand)</title>
<path fill="none" stroke="black" d="M2091.44,-287.7C2095.2,-279.73 2099.74,-270.1 2103.9,-261.26"/>
<polygon fill="black" stroke="black" points="2107.12,-262.64 2108.22,-252.1 2100.79,-259.66 2107.12,-262.64"/>
</g>
<!-- [root] module.rancher.helm_release.rancher_release (expand) -->
<g id="node6" class="node">
<title>[root] module.rancher.helm_release.rancher_release (expand)</title>
<polygon fill="none" stroke="black" points="764.28,-324 498.28,-324 498.28,-288 764.28,-288 764.28,-324"/>
<text text-anchor="middle" x="631.28" y="-302.3" font-family="Times,serif" font-size="14.00">module.rancher.helm_release.rancher_release</text>
</g>
<!-- [root] provider[&quot;registry.terraform.io/hashicorp/helm&quot;] -->
<g id="node8" class="node">
<title>[root] provider[&quot;registry.terraform.io/hashicorp/helm&quot;]</title>
<polygon fill="none" stroke="black" points="258.28,-252 0.22,-234 258.28,-216 516.35,-234 258.28,-252"/>
<text text-anchor="middle" x="258.28" y="-230.3" font-family="Times,serif" font-size="14.00">provider[&quot;registry.terraform.io/hashicorp/helm&quot;]</text>
</g>
<!-- [root] module.rancher.helm_release.rancher_release (expand)&#45;&gt;[root] provider[&quot;registry.terraform.io/hashicorp/helm&quot;] -->
<g id="edge13" class="edge">
<title>[root] module.rancher.helm_release.rancher_release (expand)&#45;&gt;[root] provider[&quot;registry.terraform.io/hashicorp/helm&quot;]</title>
<path fill="none" stroke="black" d="M540.51,-287.97C477.42,-276.13 394.28,-260.52 334.6,-249.32"/>
<polygon fill="black" stroke="black" points="334.96,-245.83 324.49,-247.42 333.67,-252.71 334.96,-245.83"/>
</g>
<!-- [root] module.rancher (expand) -->
<g id="node14" class="node">
<title>[root] module.rancher (expand)</title>
<ellipse fill="none" stroke="black" cx="1248.28" cy="-234" rx="122.38" ry="18"/>
<text text-anchor="middle" x="1248.28" y="-230.3" font-family="Times,serif" font-size="14.00">[root] module.rancher (expand)</text>
</g>
<!-- [root] module.rancher.helm_release.rancher_release (expand)&#45;&gt;[root] module.rancher (expand) -->
<g id="edge12" class="edge">
<title>[root] module.rancher.helm_release.rancher_release (expand)&#45;&gt;[root] module.rancher (expand)</title>
<path fill="none" stroke="black" d="M764.41,-291.22C862.13,-280.93 998.03,-266.24 1117.28,-252 1128.2,-250.7 1139.63,-249.28 1150.99,-247.85"/>
<polygon fill="black" stroke="black" points="1151.46,-251.32 1160.94,-246.59 1150.58,-244.37 1151.46,-251.32"/>
</g>
<!-- [root] module.rancher.kubernetes_namespace_v1.rancher_namespace (expand) -->
<g id="node7" class="node">
<title>[root] module.rancher.kubernetes_namespace_v1.rancher_namespace (expand)</title>
<polygon fill="none" stroke="black" points="1310.28,-324 948.28,-324 948.28,-288 1310.28,-288 1310.28,-324"/>
<text text-anchor="middle" x="1129.28" y="-302.3" font-family="Times,serif" font-size="14.00">module.rancher.kubernetes_namespace_v1.rancher_namespace</text>
</g>
<!-- [root] provider[&quot;registry.terraform.io/hashicorp/kubernetes&quot;] -->
<g id="node9" class="node">
<title>[root] provider[&quot;registry.terraform.io/hashicorp/kubernetes&quot;]</title>
<polygon fill="none" stroke="black" points="821.28,-252 534.73,-234 821.28,-216 1107.84,-234 821.28,-252"/>
<text text-anchor="middle" x="821.28" y="-230.3" font-family="Times,serif" font-size="14.00">provider[&quot;registry.terraform.io/hashicorp/kubernetes&quot;]</text>
</g>
<!-- [root] module.rancher.kubernetes_namespace_v1.rancher_namespace (expand)&#45;&gt;[root] provider[&quot;registry.terraform.io/hashicorp/kubernetes&quot;] -->
<g id="edge15" class="edge">
<title>[root] module.rancher.kubernetes_namespace_v1.rancher_namespace (expand)&#45;&gt;[root] provider[&quot;registry.terraform.io/hashicorp/kubernetes&quot;]</title>
<path fill="none" stroke="black" d="M1054.33,-287.97C1004.19,-276.57 938.71,-261.69 889.93,-250.6"/>
<polygon fill="black" stroke="black" points="890.62,-247.17 880.09,-248.37 889.07,-253.99 890.62,-247.17"/>
</g>
<!-- [root] module.rancher.kubernetes_namespace_v1.rancher_namespace (expand)&#45;&gt;[root] module.rancher (expand) -->
<g id="edge14" class="edge">
<title>[root] module.rancher.kubernetes_namespace_v1.rancher_namespace (expand)&#45;&gt;[root] module.rancher (expand)</title>
<path fill="none" stroke="black" d="M1158.39,-287.88C1174.19,-278.59 1193.88,-267 1210.81,-257.04"/>
<polygon fill="black" stroke="black" points="1213.04,-259.79 1219.88,-251.71 1209.49,-253.76 1213.04,-259.79"/>
</g>
<!-- [root] var.kube_config_name -->
<g id="node12" class="node">
<title>[root] var.kube_config_name</title>
<polygon fill="none" stroke="black" points="604.78,-180 469.78,-180 469.78,-144 610.78,-144 610.78,-174 604.78,-180"/>
<polyline fill="none" stroke="black" points="604.78,-180 604.78,-174 "/>
<polyline fill="none" stroke="black" points="610.78,-174 604.78,-174 "/>
<text text-anchor="middle" x="540.28" y="-158.3" font-family="Times,serif" font-size="14.00">var.kube_config_name</text>
</g>
<!-- [root] provider[&quot;registry.terraform.io/hashicorp/helm&quot;]&#45;&gt;[root] var.kube_config_name -->
<g id="edge17" class="edge">
<title>[root] provider[&quot;registry.terraform.io/hashicorp/helm&quot;]&#45;&gt;[root] var.kube_config_name</title>
<path fill="none" stroke="black" d="M311.99,-219.67C354.36,-209.15 414.07,-194.33 461.8,-182.48"/>
<polygon fill="black" stroke="black" points="462.93,-185.81 471.79,-180 461.24,-179.01 462.93,-185.81"/>
</g>
<!-- [root] provider[&quot;registry.terraform.io/hashicorp/kubernetes&quot;]&#45;&gt;[root] var.kube_config_name -->
<g id="edge19" class="edge">
<title>[root] provider[&quot;registry.terraform.io/hashicorp/kubernetes&quot;]&#45;&gt;[root] var.kube_config_name</title>
<path fill="none" stroke="black" d="M766.77,-219.42C724.6,-208.92 665.64,-194.23 618.45,-182.47"/>
<polygon fill="black" stroke="black" points="619.12,-179.03 608.57,-180.01 617.43,-185.82 619.12,-179.03"/>
</g>
<!-- [root] local.linode_token (expand) -->
<g id="node19" class="node">
<title>[root] local.linode_token (expand)</title>
<ellipse fill="none" stroke="black" cx="1566.28" cy="-18" rx="131.88" ry="18"/>
<text text-anchor="middle" x="1566.28" y="-14.3" font-family="Times,serif" font-size="14.00">[root] local.linode_token (expand)</text>
</g>
<!-- [root] provider[&quot;registry.terraform.io/linode/linode&quot;]&#45;&gt;[root] local.linode_token (expand) -->
<g id="edge24" class="edge">
<title>[root] provider[&quot;registry.terraform.io/linode/linode&quot;]&#45;&gt;[root] local.linode_token (expand)</title>
<path fill="none" stroke="black" d="M1566.28,-71.7C1566.28,-63.98 1566.28,-54.71 1566.28,-46.11"/>
<polygon fill="black" stroke="black" points="1569.78,-46.1 1566.28,-36.1 1562.78,-46.1 1569.78,-46.1"/>
</g>
<!-- [root] module.rancher (close) -->
<g id="node13" class="node">
<title>[root] module.rancher (close)</title>
<ellipse fill="none" stroke="black" cx="979.28" cy="-378" rx="115.08" ry="18"/>
<text text-anchor="middle" x="979.28" y="-374.3" font-family="Times,serif" font-size="14.00">[root] module.rancher (close)</text>
</g>
<!-- [root] module.rancher (close)&#45;&gt;[root] module.rancher.helm_release.rancher_release (expand) -->
<g id="edge8" class="edge">
<title>[root] module.rancher (close)&#45;&gt;[root] module.rancher.helm_release.rancher_release (expand)</title>
<path fill="none" stroke="black" d="M911.77,-363.42C858.89,-352.78 784.7,-337.86 725.9,-326.03"/>
<polygon fill="black" stroke="black" points="726.35,-322.55 715.85,-324.01 724.97,-329.41 726.35,-322.55"/>
</g>
<!-- [root] module.rancher (close)&#45;&gt;[root] module.rancher.kubernetes_namespace_v1.rancher_namespace (expand) -->
<g id="edge9" class="edge">
<title>[root] module.rancher (close)&#45;&gt;[root] module.rancher.kubernetes_namespace_v1.rancher_namespace (expand)</title>
<path fill="none" stroke="black" d="M1014.07,-360.76C1034.75,-351.12 1061.21,-338.77 1083.56,-328.34"/>
<polygon fill="black" stroke="black" points="1085.27,-331.4 1092.85,-324 1082.31,-325.06 1085.27,-331.4"/>
</g>
<!-- [root] module.rancher (expand)&#45;&gt;[root] linode_firewall.firewall (expand) -->
<g id="edge10" class="edge">
<title>[root] module.rancher (expand)&#45;&gt;[root] linode_firewall.firewall (expand)</title>
<path fill="none" stroke="black" d="M1299.64,-217.64C1333.72,-207.44 1378.8,-193.96 1415.64,-182.94"/>
<polygon fill="black" stroke="black" points="1416.73,-186.26 1425.31,-180.04 1414.72,-179.56 1416.73,-186.26"/>
</g>
<!-- [root] module.rancher (expand)&#45;&gt;[root] linode_lke_cluster.cluster (expand) -->
<g id="edge11" class="edge">
<title>[root] module.rancher (expand)&#45;&gt;[root] linode_lke_cluster.cluster (expand)</title>
<path fill="none" stroke="black" d="M1327.94,-220.3C1389.53,-210.32 1477.18,-195.79 1562.62,-180.28"/>
<polygon fill="black" stroke="black" points="1563.28,-183.72 1572.49,-178.48 1562.02,-176.83 1563.28,-183.72"/>
</g>
<!-- [root] provider[&quot;registry.terraform.io/hashicorp/helm&quot;] (close) -->
<g id="node15" class="node">
<title>[root] provider[&quot;registry.terraform.io/hashicorp/helm&quot;] (close)</title>
<ellipse fill="none" stroke="black" cx="615.28" cy="-378" rx="231.26" ry="18"/>
<text text-anchor="middle" x="615.28" y="-374.3" font-family="Times,serif" font-size="14.00">[root] provider[&quot;registry.terraform.io/hashicorp/helm&quot;] (close)</text>
</g>
<!-- [root] provider[&quot;registry.terraform.io/hashicorp/helm&quot;] (close)&#45;&gt;[root] module.rancher.helm_release.rancher_release (expand) -->
<g id="edge16" class="edge">
<title>[root] provider[&quot;registry.terraform.io/hashicorp/helm&quot;] (close)&#45;&gt;[root] module.rancher.helm_release.rancher_release (expand)</title>
<path fill="none" stroke="black" d="M619.24,-359.7C621,-351.98 623.12,-342.71 625.09,-334.11"/>
<polygon fill="black" stroke="black" points="628.56,-334.63 627.37,-324.1 621.73,-333.07 628.56,-334.63"/>
</g>
<!-- [root] provider[&quot;registry.terraform.io/hashicorp/kubernetes&quot;] (close) -->
<g id="node16" class="node">
<title>[root] provider[&quot;registry.terraform.io/hashicorp/kubernetes&quot;] (close)</title>
<ellipse fill="none" stroke="black" cx="1364.28" cy="-378" rx="251.56" ry="18"/>
<text text-anchor="middle" x="1364.28" y="-374.3" font-family="Times,serif" font-size="14.00">[root] provider[&quot;registry.terraform.io/hashicorp/kubernetes&quot;] (close)</text>
</g>
<!-- [root] provider[&quot;registry.terraform.io/hashicorp/kubernetes&quot;] (close)&#45;&gt;[root] module.rancher.kubernetes_namespace_v1.rancher_namespace (expand) -->
<g id="edge18" class="edge">
<title>[root] provider[&quot;registry.terraform.io/hashicorp/kubernetes&quot;] (close)&#45;&gt;[root] module.rancher.kubernetes_namespace_v1.rancher_namespace (expand)</title>
<path fill="none" stroke="black" d="M1308.59,-360.41C1274.97,-350.4 1231.91,-337.57 1196.41,-327"/>
<polygon fill="black" stroke="black" points="1197.2,-323.58 1186.62,-324.08 1195.2,-330.29 1197.2,-323.58"/>
</g>
<!-- [root] provider[&quot;registry.terraform.io/hashicorp/local&quot;] (close) -->
<g id="node17" class="node">
<title>[root] provider[&quot;registry.terraform.io/hashicorp/local&quot;] (close)</title>
<ellipse fill="none" stroke="black" cx="1935.28" cy="-378" rx="230.96" ry="18"/>
<text text-anchor="middle" x="1935.28" y="-374.3" font-family="Times,serif" font-size="14.00">[root] provider[&quot;registry.terraform.io/hashicorp/local&quot;] (close)</text>
</g>
<!-- [root] provider[&quot;registry.terraform.io/hashicorp/local&quot;] (close)&#45;&gt;[root] local_file.kubeconfig&#45;local (expand) -->
<g id="edge20" class="edge">
<title>[root] provider[&quot;registry.terraform.io/hashicorp/local&quot;] (close)&#45;&gt;[root] local_file.kubeconfig&#45;local (expand)</title>
<path fill="none" stroke="black" d="M1935.28,-359.87C1935.28,-335.67 1935.28,-291.21 1935.28,-262.39"/>
<polygon fill="black" stroke="black" points="1938.78,-262.19 1935.28,-252.19 1931.78,-262.19 1938.78,-262.19"/>
</g>
<!-- [root] provider[&quot;registry.terraform.io/hashicorp/local&quot;] (close)&#45;&gt;[root] local_file.terraform_zsh_env (expand) -->
<g id="edge21" class="edge">
<title>[root] provider[&quot;registry.terraform.io/hashicorp/local&quot;] (close)&#45;&gt;[root] local_file.terraform_zsh_env (expand)</title>
<path fill="none" stroke="black" d="M1971.11,-360.05C1991.23,-350.54 2016.54,-338.57 2038.02,-328.41"/>
<polygon fill="black" stroke="black" points="2039.73,-331.47 2047.27,-324.03 2036.74,-325.14 2039.73,-331.47"/>
</g>
<!-- [root] provider[&quot;registry.terraform.io/linode/linode&quot;] (close) -->
<g id="node18" class="node">
<title>[root] provider[&quot;registry.terraform.io/linode/linode&quot;] (close)</title>
<ellipse fill="none" stroke="black" cx="1612.28" cy="-234" rx="223.66" ry="18"/>
<text text-anchor="middle" x="1612.28" y="-230.3" font-family="Times,serif" font-size="14.00">[root] provider[&quot;registry.terraform.io/linode/linode&quot;] (close)</text>
</g>
<!-- [root] provider[&quot;registry.terraform.io/linode/linode&quot;] (close)&#45;&gt;[root] linode_firewall.firewall (expand) -->
<g id="edge22" class="edge">
<title>[root] provider[&quot;registry.terraform.io/linode/linode&quot;] (close)&#45;&gt;[root] linode_firewall.firewall (expand)</title>
<path fill="none" stroke="black" d="M1580.81,-216.05C1563.38,-206.67 1541.51,-194.89 1522.81,-184.82"/>
<polygon fill="black" stroke="black" points="1524.38,-181.69 1513.91,-180.03 1521.06,-187.85 1524.38,-181.69"/>
</g>
<!-- [root] provider[&quot;registry.terraform.io/linode/linode&quot;] (close)&#45;&gt;[root] linode_lke_cluster.cluster (expand) -->
<g id="edge23" class="edge">
<title>[root] provider[&quot;registry.terraform.io/linode/linode&quot;] (close)&#45;&gt;[root] linode_lke_cluster.cluster (expand)</title>
<path fill="none" stroke="black" d="M1621.68,-215.7C1626.05,-207.64 1631.34,-197.89 1636.18,-188.98"/>
<polygon fill="black" stroke="black" points="1639.3,-190.56 1641,-180.1 1633.15,-187.22 1639.3,-190.56"/>
</g>
<!-- [root] root -->
<g id="node20" class="node">
<title>[root] root</title>
<ellipse fill="none" stroke="black" cx="1364.28" cy="-450" rx="47.39" ry="18"/>
<text text-anchor="middle" x="1364.28" y="-446.3" font-family="Times,serif" font-size="14.00">[root] root</text>
</g>
<!-- [root] root&#45;&gt;[root] module.rancher (close) -->
<g id="edge25" class="edge">
<title>[root] root&#45;&gt;[root] module.rancher (close)</title>
<path fill="none" stroke="black" d="M1322.35,-441.38C1259.93,-430.03 1141.34,-408.47 1061.3,-393.91"/>
<polygon fill="black" stroke="black" points="1061.71,-390.43 1051.24,-392.08 1060.46,-397.32 1061.71,-390.43"/>
</g>
<!-- [root] root&#45;&gt;[root] provider[&quot;registry.terraform.io/hashicorp/helm&quot;] (close) -->
<g id="edge26" class="edge">
<title>[root] root&#45;&gt;[root] provider[&quot;registry.terraform.io/hashicorp/helm&quot;] (close)</title>
<path fill="none" stroke="black" d="M1318.84,-444.75C1211.86,-434.75 940.17,-409.36 767.43,-393.22"/>
<polygon fill="black" stroke="black" points="767.51,-389.71 757.23,-392.27 766.86,-396.68 767.51,-389.71"/>
</g>
<!-- [root] root&#45;&gt;[root] provider[&quot;registry.terraform.io/hashicorp/kubernetes&quot;] (close) -->
<g id="edge27" class="edge">
<title>[root] root&#45;&gt;[root] provider[&quot;registry.terraform.io/hashicorp/kubernetes&quot;] (close)</title>
<path fill="none" stroke="black" d="M1364.28,-431.7C1364.28,-423.98 1364.28,-414.71 1364.28,-406.11"/>
<polygon fill="black" stroke="black" points="1367.78,-406.1 1364.28,-396.1 1360.78,-406.1 1367.78,-406.1"/>
</g>
<!-- [root] root&#45;&gt;[root] provider[&quot;registry.terraform.io/hashicorp/local&quot;] (close) -->
<g id="edge28" class="edge">
<title>[root] root&#45;&gt;[root] provider[&quot;registry.terraform.io/hashicorp/local&quot;] (close)</title>
<path fill="none" stroke="black" d="M1408.61,-443.57C1493.12,-433.21 1680.14,-410.28 1807,-394.73"/>
<polygon fill="black" stroke="black" points="1807.67,-398.17 1817.17,-393.48 1806.81,-391.22 1807.67,-398.17"/>
</g>
<!-- [root] root&#45;&gt;[root] provider[&quot;registry.terraform.io/linode/linode&quot;] (close) -->
<g id="edge29" class="edge">
<title>[root] root&#45;&gt;[root] provider[&quot;registry.terraform.io/linode/linode&quot;] (close)</title>
<path fill="none" stroke="black" d="M1410.98,-446.4C1478.63,-441.55 1598.73,-428.49 1625.28,-396 1656.3,-358.06 1638.91,-296.89 1624.75,-261.89"/>
<polygon fill="black" stroke="black" points="1627.83,-260.18 1620.7,-252.34 1621.38,-262.91 1627.83,-260.18"/>
</g>
</g>
</svg>
